<svg xmlns="http://www.w3.org/2000/svg" version="1.1" xmlns:xlink="http://www.w3.org/1999/xlink" xmlns:svgjs="http://svgjs.com/svgjs" width="412" height="915" preserveAspectRatio="none" viewBox="0 0 412 915"><g mask="url(&quot;#SvgjsMask1036&quot;)" fill="none"><rect width="412" height="915" x="0" y="0" fill="rgba(18, 18, 18, 1)"></rect><path d="M-61.99 610.81L-61.99 610.81" stroke="#132e65" stroke-width="1.5"></path><path d="M-61.99 610.81L-82.84 727.73" stroke="#132e65" stroke-width="1.5"></path><path d="M-61.99 610.81L66.43 626.41" stroke="#132e65" stroke-width="1.5"></path><path d="M-61.99 610.81L54.87 762.46" stroke="#132e65" stroke-width="1.5"></path><path d="M-61.99 610.81L-65.14 829.83" stroke="#132e65" stroke-width="1.5"></path><path d="M-82.84 727.73L-82.84 727.73" stroke="#132e65" stroke-width="1.5"></path><path d="M-82.84 727.73L-65.14 829.83" stroke="#132e65" stroke-width="1.5"></path><path d="M-82.84 727.73L54.87 762.46" stroke="#132e65" stroke-width="1.5"></path><path d="M-82.84 727.73L66.43 626.41" stroke="#132e65" stroke-width="1.5"></path><path d="M-82.84 727.73L41.64 871.53" stroke="#132e65" stroke-width="1.5"></path><path d="M-82.84 727.73L-62.02 952.1" stroke="#132e65" stroke-width="1.5"></path><path d="M-65.14 829.83L-65.14 829.83" stroke="#132e65" stroke-width="1.5"></path><path d="M-65.14 829.83L41.64 871.53" stroke="#132e65" stroke-width="1.5"></path><path d="M-65.14 829.83L-62.02 952.1" stroke="#132e65" stroke-width="1.5"></path><path d="M-65.14 829.83L54.87 762.46" stroke="#132e65" stroke-width="1.5"></path><path d="M-65.14 829.83L152.54 872.51" stroke="#132e65" stroke-width="1.5"></path><path d="M-62.02 952.1L-62.02 952.1" stroke="#132e65" stroke-width="1.5"></path><path d="M-62.02 952.1L41.64 871.53" stroke="#132e65" stroke-width="1.5"></path><path d="M-62.02 952.1L54.87 762.46" stroke="#132e65" stroke-width="1.5"></path><path d="M-62.02 952.1L152.54 872.51" stroke="#132e65" stroke-width="1.5"></path><path d="M-62.02 952.1L167.01 974.12" stroke="#132e65" stroke-width="1.5"></path><path d="M66.43 626.41L66.43 626.41" stroke="#132e65" stroke-width="1.5"></path><path d="M66.43 626.41L147.97 531.07" stroke="#132e65" stroke-width="1.5"></path><path d="M66.43 626.41L146.74 725.79" stroke="#132e65" stroke-width="1.5"></path><path d="M66.43 626.41L199.9 630.41" stroke="#132e65" stroke-width="1.5"></path><path d="M66.43 626.41L54.87 762.46" stroke="#132e65" stroke-width="1.5"></path><path d="M54.87 762.46L54.87 762.46" stroke="#132e65" stroke-width="1.5"></path><path d="M54.87 762.46L146.74 725.79" stroke="#132e65" stroke-width="1.5"></path><path d="M41.64 871.53L41.64 871.53" stroke="#132e65" stroke-width="1.5"></path><path d="M41.64 871.53L54.87 762.46" stroke="#132e65" stroke-width="1.5"></path><path d="M41.64 871.53L152.54 872.51" stroke="#132e65" stroke-width="1.5"></path><path d="M41.64 871.53L167.01 974.12" stroke="#132e65" stroke-width="1.5"></path><path d="M41.64 871.53L146.74 725.79" stroke="#132e65" stroke-width="1.5"></path><path d="M191.75 394.91L191.75 394.91" stroke="#132e65" stroke-width="1.5"></path><path d="M191.75 394.91L147.97 531.07" stroke="#132e65" stroke-width="1.5"></path><path d="M191.75 394.91L289.92 274.79" stroke="#132e65" stroke-width="1.5"></path><path d="M191.75 394.91L272.23 536.56" stroke="#132e65" stroke-width="1.5"></path><path d="M191.75 394.91L380.5 489.77" stroke="#132e65" stroke-width="1.5"></path><path d="M191.75 394.91L289.15 197.91" stroke="#132e65" stroke-width="1.5"></path><path d="M191.75 394.91L425.58 397.69" stroke="#132e65" stroke-width="1.5"></path><path d="M147.97 531.07L147.97 531.07" stroke="#132e65" stroke-width="1.5"></path><path d="M147.97 531.07L199.9 630.41" stroke="#132e65" stroke-width="1.5"></path><path d="M147.97 531.07L272.23 536.56" stroke="#132e65" stroke-width="1.5"></path><path d="M147.97 531.07L303.67 615.79" stroke="#132e65" stroke-width="1.5"></path><path d="M199.9 630.41L199.9 630.41" stroke="#132e65" stroke-width="1.5"></path><path d="M199.9 630.41L303.67 615.79" stroke="#132e65" stroke-width="1.5"></path><path d="M199.9 630.41L146.74 725.79" stroke="#132e65" stroke-width="1.5"></path><path d="M146.74 725.79L146.74 725.79" stroke="#132e65" stroke-width="1.5"></path><path d="M146.74 725.79L152.54 872.51" stroke="#132e65" stroke-width="1.5"></path><path d="M152.54 872.51L152.54 872.51" stroke="#132e65" stroke-width="1.5"></path><path d="M152.54 872.51L167.01 974.12" stroke="#132e65" stroke-width="1.5"></path><path d="M152.54 872.51L260.23 873.22" stroke="#132e65" stroke-width="1.5"></path><path d="M152.54 872.51L54.87 762.46" stroke="#132e65" stroke-width="1.5"></path><path d="M152.54 872.51L281.35 985.16" stroke="#132e65" stroke-width="1.5"></path><path d="M167.01 974.12L167.01 974.12" stroke="#132e65" stroke-width="1.5"></path><path d="M167.01 974.12L281.35 985.16" stroke="#132e65" stroke-width="1.5"></path><path d="M167.01 974.12L260.23 873.22" stroke="#132e65" stroke-width="1.5"></path><path d="M285.41 -74.25L285.41 -74.25" stroke="#132e65" stroke-width="1.5"></path><path d="M285.41 -74.25L397.03 -69.48" stroke="#132e65" stroke-width="1.5"></path><path d="M285.41 -74.25L288.92 53.32" stroke="#132e65" stroke-width="1.5"></path><path d="M285.41 -74.25L391.29 56.74" stroke="#132e65" stroke-width="1.5"></path><path d="M288.92 53.32L288.92 53.32" stroke="#132e65" stroke-width="1.5"></path><path d="M288.92 53.32L391.29 56.74" stroke="#132e65" stroke-width="1.5"></path><path d="M288.92 53.32L289.15 197.91" stroke="#132e65" stroke-width="1.5"></path><path d="M288.92 53.32L382.8 167.26" stroke="#132e65" stroke-width="1.5"></path><path d="M289.15 197.91L289.15 197.91" stroke="#132e65" stroke-width="1.5"></path><path d="M289.15 197.91L289.92 274.79" stroke="#132e65" stroke-width="1.5"></path><path d="M289.15 197.91L382.8 167.26" stroke="#132e65" stroke-width="1.5"></path><path d="M289.15 197.91L404.35 257.98" stroke="#132e65" stroke-width="1.5"></path><path d="M289.15 197.91L391.29 56.74" stroke="#132e65" stroke-width="1.5"></path><path d="M289.92 274.79L289.92 274.79" stroke="#132e65" stroke-width="1.5"></path><path d="M289.92 274.79L404.35 257.98" stroke="#132e65" stroke-width="1.5"></path><path d="M289.92 274.79L382.8 167.26" stroke="#132e65" stroke-width="1.5"></path><path d="M289.92 274.79L425.58 397.69" stroke="#132e65" stroke-width="1.5"></path><path d="M289.92 274.79L491.86 279.88" stroke="#132e65" stroke-width="1.5"></path><path d="M272.23 536.56L272.23 536.56" stroke="#132e65" stroke-width="1.5"></path><path d="M272.23 536.56L303.67 615.79" stroke="#132e65" stroke-width="1.5"></path><path d="M272.23 536.56L380.5 489.77" stroke="#132e65" stroke-width="1.5"></path><path d="M272.23 536.56L199.9 630.41" stroke="#132e65" stroke-width="1.5"></path><path d="M303.67 615.79L303.67 615.79" stroke="#132e65" stroke-width="1.5"></path><path d="M303.67 615.79L301.8 727.71" stroke="#132e65" stroke-width="1.5"></path><path d="M301.8 727.71L301.8 727.71" stroke="#132e65" stroke-width="1.5"></path><path d="M301.8 727.71L422.5 732.69" stroke="#132e65" stroke-width="1.5"></path><path d="M260.23 873.22L260.23 873.22" stroke="#132e65" stroke-width="1.5"></path><path d="M260.23 873.22L281.35 985.16" stroke="#132e65" stroke-width="1.5"></path><path d="M281.35 985.16L281.35 985.16" stroke="#132e65" stroke-width="1.5"></path><path d="M281.35 985.16L409.09 945.99" stroke="#132e65" stroke-width="1.5"></path><path d="M397.03 -69.48L397.03 -69.48" stroke="#132e65" stroke-width="1.5"></path><path d="M397.03 -69.48L498.7 -73.3" stroke="#132e65" stroke-width="1.5"></path><path d="M397.03 -69.48L391.29 56.74" stroke="#132e65" stroke-width="1.5"></path><path d="M391.29 56.74L391.29 56.74" stroke="#132e65" stroke-width="1.5"></path><path d="M391.29 56.74L494.03 61.33" stroke="#132e65" stroke-width="1.5"></path><path d="M391.29 56.74L382.8 167.26" stroke="#132e65" stroke-width="1.5"></path><path d="M382.8 167.26L382.8 167.26" stroke="#132e65" stroke-width="1.5"></path><path d="M382.8 167.26L404.35 257.98" stroke="#132e65" stroke-width="1.5"></path><path d="M404.35 257.98L404.35 257.98" stroke="#132e65" stroke-width="1.5"></path><path d="M404.35 257.98L491.86 279.88" stroke="#132e65" stroke-width="1.5"></path><path d="M404.35 257.98L495.71 198.56" stroke="#132e65" stroke-width="1.5"></path><path d="M404.35 257.98L425.58 397.69" stroke="#132e65" stroke-width="1.5"></path><path d="M425.58 397.69L425.58 397.69" stroke="#132e65" stroke-width="1.5"></path><path d="M425.58 397.69L486.29 394.57" stroke="#132e65" stroke-width="1.5"></path><path d="M425.58 397.69L380.5 489.77" stroke="#132e65" stroke-width="1.5"></path><path d="M425.58 397.69L491.86 279.88" stroke="#132e65" stroke-width="1.5"></path><path d="M380.5 489.77L380.5 489.77" stroke="#132e65" stroke-width="1.5"></path><path d="M380.5 489.77L424.89 615.22" stroke="#132e65" stroke-width="1.5"></path><path d="M380.5 489.77L486.29 394.57" stroke="#132e65" stroke-width="1.5"></path><path d="M380.5 489.77L303.67 615.79" stroke="#132e65" stroke-width="1.5"></path><path d="M424.89 615.22L424.89 615.22" stroke="#132e65" stroke-width="1.5"></path><path d="M424.89 615.22L522.7 636.95" stroke="#132e65" stroke-width="1.5"></path><path d="M424.89 615.22L422.5 732.69" stroke="#132e65" stroke-width="1.5"></path><path d="M422.5 732.69L422.5 732.69" stroke="#132e65" stroke-width="1.5"></path><path d="M422.5 732.69L522.7 636.95" stroke="#132e65" stroke-width="1.5"></path><path d="M422.5 732.69L303.67 615.79" stroke="#132e65" stroke-width="1.5"></path><path d="M422.5 732.69L409.09 945.99" stroke="#132e65" stroke-width="1.5"></path><path d="M409.09 945.99L409.09 945.99" stroke="#132e65" stroke-width="1.5"></path><path d="M409.09 945.99L541.92 973.63" stroke="#132e65" stroke-width="1.5"></path><path d="M498.7 -73.3L498.7 -73.3" stroke="#132e65" stroke-width="1.5"></path><path d="M498.7 -73.3L494.03 61.33" stroke="#132e65" stroke-width="1.5"></path><path d="M498.7 -73.3L391.29 56.74" stroke="#132e65" stroke-width="1.5"></path><path d="M498.7 -73.3L285.41 -74.25" stroke="#132e65" stroke-width="1.5"></path><path d="M498.7 -73.3L288.92 53.32" stroke="#132e65" stroke-width="1.5"></path><path d="M498.7 -73.3L382.8 167.26" stroke="#132e65" stroke-width="1.5"></path><path d="M494.03 61.33L494.03 61.33" stroke="#132e65" stroke-width="1.5"></path><path d="M495.71 198.56L495.71 198.56" stroke="#132e65" stroke-width="1.5"></path><path d="M495.71 198.56L491.86 279.88" stroke="#132e65" stroke-width="1.5"></path><path d="M491.86 279.88L491.86 279.88" stroke="#132e65" stroke-width="1.5"></path><path d="M491.86 279.88L486.29 394.57" stroke="#132e65" stroke-width="1.5"></path><path d="M486.29 394.57L486.29 394.57" stroke="#132e65" stroke-width="1.5"></path><path d="M486.29 394.57L532.47 496.58" stroke="#132e65" stroke-width="1.5"></path><path d="M532.47 496.58L532.47 496.58" stroke="#132e65" stroke-width="1.5"></path><path d="M532.47 496.58L522.7 636.95" stroke="#132e65" stroke-width="1.5"></path><path d="M532.47 496.58L425.58 397.69" stroke="#132e65" stroke-width="1.5"></path><path d="M532.47 496.58L380.5 489.77" stroke="#132e65" stroke-width="1.5"></path><path d="M532.47 496.58L424.89 615.22" stroke="#132e65" stroke-width="1.5"></path><path d="M522.7 636.95L522.7 636.95" stroke="#132e65" stroke-width="1.5"></path><path d="M541.92 973.63L541.92 973.63" stroke="#132e65" stroke-width="1.5"></path><path d="M541.92 973.63L281.35 985.16" stroke="#132e65" stroke-width="1.5"></path><path d="M541.92 973.63L422.5 732.69" stroke="#132e65" stroke-width="1.5"></path><path d="M541.92 973.63L260.23 873.22" stroke="#132e65" stroke-width="1.5"></path><circle r="5" cx="-61.99" cy="610.81" fill="#132e65"></circle><circle r="5" cx="-82.84" cy="727.73" fill="#132e65"></circle><circle r="5" cx="-65.14" cy="829.83" fill="#132e65"></circle><circle r="5" cx="-62.02" cy="952.1" fill="#132e65"></circle><circle r="5" cx="66.43" cy="626.41" fill="#132e65"></circle><circle r="5" cx="54.87" cy="762.46" fill="#132e65"></circle><circle r="5" cx="41.64" cy="871.53" fill="#132e65"></circle><circle r="5" cx="191.75" cy="394.91" fill="#132e65"></circle><circle r="5" cx="147.97" cy="531.07" fill="#132e65"></circle><circle r="5" cx="199.9" cy="630.41" fill="#132e65"></circle><circle r="5" cx="146.74" cy="725.79" fill="#132e65"></circle><circle r="5" cx="152.54" cy="872.51" fill="#132e65"></circle><circle r="5" cx="167.01" cy="974.12" fill="#132e65"></circle><circle r="5" cx="285.41" cy="-74.25" fill="#132e65"></circle><circle r="5" cx="288.92" cy="53.32" fill="#132e65"></circle><circle r="5" cx="289.15" cy="197.91" fill="#132e65"></circle><circle r="5" cx="289.92" cy="274.79" fill="#132e65"></circle><circle r="5" cx="272.23" cy="536.56" fill="#132e65"></circle><circle r="5" cx="303.67" cy="615.79" fill="#132e65"></circle><circle r="5" cx="301.8" cy="727.71" fill="#132e65"></circle><circle r="5" cx="260.23" cy="873.22" fill="#132e65"></circle><circle r="5" cx="281.35" cy="985.16" fill="#132e65"></circle><circle r="5" cx="397.03" cy="-69.48" fill="#132e65"></circle><circle r="5" cx="391.29" cy="56.74" fill="#132e65"></circle><circle r="5" cx="382.8" cy="167.26" fill="#132e65"></circle><circle r="5" cx="404.35" cy="257.98" fill="#132e65"></circle><circle r="5" cx="425.58" cy="397.69" fill="#132e65"></circle><circle r="5" cx="380.5" cy="489.77" fill="#132e65"></circle><circle r="5" cx="424.89" cy="615.22" fill="#132e65"></circle><circle r="5" cx="422.5" cy="732.69" fill="#132e65"></circle><circle r="5" cx="409.09" cy="945.99" fill="#132e65"></circle><circle r="5" cx="498.7" cy="-73.3" fill="#132e65"></circle><circle r="5" cx="494.03" cy="61.33" fill="#132e65"></circle><circle r="5" cx="495.71" cy="198.56" fill="#132e65"></circle><circle r="5" cx="491.86" cy="279.88" fill="#132e65"></circle><circle r="5" cx="486.29" cy="394.57" fill="#132e65"></circle><circle r="5" cx="532.47" cy="496.58" fill="#132e65"></circle><circle r="5" cx="522.7" cy="636.95" fill="#132e65"></circle><circle r="5" cx="541.92" cy="973.63" fill="#132e65"></circle><path d="M195.92 829.23L195.92 829.23" stroke="hsl(228.5, 77.2%, 51.5%)" stroke-width="1.5"></path><path d="M195.92 829.23L309.19 849.72" stroke="hsl(228.5, 77.2%, 51.5%)" stroke-width="1.5"></path><path d="M195.92 829.23L168.02 715.86" stroke="hsl(228.5, 77.2%, 51.5%)" stroke-width="1.5"></path><path d="M195.92 829.23L74.33 835.24" stroke="hsl(228.5, 77.2%, 51.5%)" stroke-width="1.5"></path><path d="M195.92 829.23L289.56 731.37" stroke="hsl(228.5, 77.2%, 51.5%)" stroke-width="1.5"></path><path d="M289.56 731.37L289.56 731.37" stroke="hsl(228.5, 77.2%, 51.5%)" stroke-width="1.5"></path><path d="M289.56 731.37L373.6 761.58" stroke="hsl(228.5, 77.2%, 51.5%)" stroke-width="1.5"></path><path d="M289.56 731.37L271.35 622.07" stroke="hsl(228.5, 77.2%, 51.5%)" stroke-width="1.5"></path><path d="M289.56 731.37L309.19 849.72" stroke="hsl(228.5, 77.2%, 51.5%)" stroke-width="1.5"></path><path d="M289.56 731.37L168.02 715.86" stroke="hsl(228.5, 77.2%, 51.5%)" stroke-width="1.5"></path><path d="M410.29 -78.85L410.29 -78.85" stroke="hsl(228.5, 77.2%, 51.5%)" stroke-width="1.5"></path><path d="M410.29 -78.85L537.61 -58.65" stroke="hsl(228.5, 77.2%, 51.5%)" stroke-width="1.5"></path><path d="M410.29 -78.85L498.96 36.49" stroke="hsl(228.5, 77.2%, 51.5%)" stroke-width="1.5"></path><path d="M410.29 -78.85L390.17 66.18" stroke="hsl(228.5, 77.2%, 51.5%)" stroke-width="1.5"></path><path d="M410.29 -78.85L401.92 181.6" stroke="hsl(228.5, 77.2%, 51.5%)" stroke-width="1.5"></path><path d="M414.14 273.67L414.14 273.67" stroke="hsl(228.5, 77.2%, 51.5%)" stroke-width="1.5"></path><path d="M414.14 273.67L401.92 181.6" stroke="hsl(228.5, 77.2%, 51.5%)" stroke-width="1.5"></path><path d="M414.14 273.67L493.48 193.7" stroke="hsl(228.5, 77.2%, 51.5%)" stroke-width="1.5"></path><path d="M414.14 273.67L528.65 311.37" stroke="hsl(228.5, 77.2%, 51.5%)" stroke-width="1.5"></path><path d="M414.14 273.67L381.52 397.65" stroke="hsl(228.5, 77.2%, 51.5%)" stroke-width="1.5"></path><path d="M407.57 604.97L407.57 604.97" stroke="hsl(228.5, 77.2%, 51.5%)" stroke-width="1.5"></path><path d="M407.57 604.97L400.49 530.07" stroke="hsl(228.5, 77.2%, 51.5%)" stroke-width="1.5"></path><path d="M407.57 604.97L490.69 657.45" stroke="hsl(228.5, 77.2%, 51.5%)" stroke-width="1.5"></path><path d="M407.57 604.97L271.35 622.07" stroke="hsl(228.5, 77.2%, 51.5%)" stroke-width="1.5"></path><path d="M407.57 604.97L495.28 490.29" stroke="hsl(228.5, 77.2%, 51.5%)" stroke-width="1.5"></path><path d="M407.57 604.97L495.66 734.05" stroke="hsl(228.5, 77.2%, 51.5%)" stroke-width="1.5"></path><path d="M407.57 604.97L373.6 761.58" stroke="hsl(228.5, 77.2%, 51.5%)" stroke-width="1.5"></path><path d="M498.96 36.49L498.96 36.49" stroke="hsl(228.5, 77.2%, 51.5%)" stroke-width="1.5"></path><path d="M498.96 36.49L537.61 -58.65" stroke="hsl(228.5, 77.2%, 51.5%)" stroke-width="1.5"></path><path d="M498.96 36.49L390.17 66.18" stroke="hsl(228.5, 77.2%, 51.5%)" stroke-width="1.5"></path><path d="M493.48 193.7L493.48 193.7" stroke="hsl(228.5, 77.2%, 51.5%)" stroke-width="1.5"></path><path d="M493.48 193.7L401.92 181.6" stroke="hsl(228.5, 77.2%, 51.5%)" stroke-width="1.5"></path><path d="M493.48 193.7L528.65 311.37" stroke="hsl(228.5, 77.2%, 51.5%)" stroke-width="1.5"></path><path d="M493.48 193.7L498.96 36.49" stroke="hsl(228.5, 77.2%, 51.5%)" stroke-width="1.5"></path><path d="M493.48 193.7L390.17 66.18" stroke="hsl(228.5, 77.2%, 51.5%)" stroke-width="1.5"></path><path d="M493.48 193.7L519.72 394.31" stroke="hsl(228.5, 77.2%, 51.5%)" stroke-width="1.5"></path><path d="M528.65 311.37L528.65 311.37" stroke="hsl(228.5, 77.2%, 51.5%)" stroke-width="1.5"></path><path d="M528.65 311.37L519.72 394.31" stroke="hsl(228.5, 77.2%, 51.5%)" stroke-width="1.5"></path><path d="M528.65 311.37L381.52 397.65" stroke="hsl(228.5, 77.2%, 51.5%)" stroke-width="1.5"></path><path d="M519.72 394.31L519.72 394.31" stroke="hsl(228.5, 77.2%, 51.5%)" stroke-width="1.5"></path><path d="M519.72 394.31L495.28 490.29" stroke="hsl(228.5, 77.2%, 51.5%)" stroke-width="1.5"></path><path d="M-54.55 754.79L-54.55 754.79" stroke="hsl(228.5, 77.2%, 51.5%)" stroke-width="1.5"></path><path d="M-54.55 754.79L74.33 835.24" stroke="hsl(228.5, 77.2%, 51.5%)" stroke-width="1.5"></path><path d="M-59.91 962.9L-59.91 962.9" stroke="hsl(228.5, 77.2%, 51.5%)" stroke-width="1.5"></path><path d="M-59.91 962.9L63.51 973.93" stroke="hsl(228.5, 77.2%, 51.5%)" stroke-width="1.5"></path><path d="M-59.91 962.9L74.33 835.24" stroke="hsl(228.5, 77.2%, 51.5%)" stroke-width="1.5"></path><path d="M74.33 835.24L74.33 835.24" stroke="hsl(228.5, 77.2%, 51.5%)" stroke-width="1.5"></path><path d="M74.33 835.24L63.51 973.93" stroke="hsl(228.5, 77.2%, 51.5%)" stroke-width="1.5"></path><path d="M63.51 973.93L63.51 973.93" stroke="hsl(228.5, 77.2%, 51.5%)" stroke-width="1.5"></path><path d="M63.51 973.93L195.92 829.23" stroke="hsl(228.5, 77.2%, 51.5%)" stroke-width="1.5"></path><path d="M63.51 973.93L284.24 1000.11" stroke="hsl(228.5, 77.2%, 51.5%)" stroke-width="1.5"></path><path d="M63.51 973.93L-54.55 754.79" stroke="hsl(228.5, 77.2%, 51.5%)" stroke-width="1.5"></path><path d="M168.02 715.86L168.02 715.86" stroke="hsl(228.5, 77.2%, 51.5%)" stroke-width="1.5"></path><path d="M168.02 715.86L271.35 622.07" stroke="hsl(228.5, 77.2%, 51.5%)" stroke-width="1.5"></path><path d="M168.02 715.86L74.33 835.24" stroke="hsl(228.5, 77.2%, 51.5%)" stroke-width="1.5"></path><path d="M257.46 497.45L257.46 497.45" stroke="hsl(228.5, 77.2%, 51.5%)" stroke-width="1.5"></path><path d="M257.46 497.45L271.35 622.07" stroke="hsl(228.5, 77.2%, 51.5%)" stroke-width="1.5"></path><path d="M257.46 497.45L400.49 530.07" stroke="hsl(228.5, 77.2%, 51.5%)" stroke-width="1.5"></path><path d="M257.46 497.45L381.52 397.65" stroke="hsl(228.5, 77.2%, 51.5%)" stroke-width="1.5"></path><path d="M257.46 497.45L407.57 604.97" stroke="hsl(228.5, 77.2%, 51.5%)" stroke-width="1.5"></path><path d="M257.46 497.45L168.02 715.86" stroke="hsl(228.5, 77.2%, 51.5%)" stroke-width="1.5"></path><path d="M257.46 497.45L289.56 731.37" stroke="hsl(228.5, 77.2%, 51.5%)" stroke-width="1.5"></path><path d="M271.35 622.07L271.35 622.07" stroke="hsl(228.5, 77.2%, 51.5%)" stroke-width="1.5"></path><path d="M309.19 849.72L309.19 849.72" stroke="hsl(228.5, 77.2%, 51.5%)" stroke-width="1.5"></path><path d="M309.19 849.72L392.88 846.89" stroke="hsl(228.5, 77.2%, 51.5%)" stroke-width="1.5"></path><path d="M309.19 849.72L373.6 761.58" stroke="hsl(228.5, 77.2%, 51.5%)" stroke-width="1.5"></path><path d="M284.24 1000.11L284.24 1000.11" stroke="hsl(228.5, 77.2%, 51.5%)" stroke-width="1.5"></path><path d="M284.24 1000.11L397.29 999.02" stroke="hsl(228.5, 77.2%, 51.5%)" stroke-width="1.5"></path><path d="M284.24 1000.11L309.19 849.72" stroke="hsl(228.5, 77.2%, 51.5%)" stroke-width="1.5"></path><path d="M284.24 1000.11L392.88 846.89" stroke="hsl(228.5, 77.2%, 51.5%)" stroke-width="1.5"></path><path d="M284.24 1000.11L195.92 829.23" stroke="hsl(228.5, 77.2%, 51.5%)" stroke-width="1.5"></path><path d="M284.24 1000.11L513.08 951.89" stroke="hsl(228.5, 77.2%, 51.5%)" stroke-width="1.5"></path><path d="M390.17 66.18L390.17 66.18" stroke="hsl(228.5, 77.2%, 51.5%)" stroke-width="1.5"></path><path d="M390.17 66.18L401.92 181.6" stroke="hsl(228.5, 77.2%, 51.5%)" stroke-width="1.5"></path><path d="M390.17 66.18L537.61 -58.65" stroke="hsl(228.5, 77.2%, 51.5%)" stroke-width="1.5"></path><path d="M390.17 66.18L414.14 273.67" stroke="hsl(228.5, 77.2%, 51.5%)" stroke-width="1.5"></path><path d="M401.92 181.6L401.92 181.6" stroke="hsl(228.5, 77.2%, 51.5%)" stroke-width="1.5"></path><path d="M401.92 181.6L498.96 36.49" stroke="hsl(228.5, 77.2%, 51.5%)" stroke-width="1.5"></path><path d="M401.92 181.6L528.65 311.37" stroke="hsl(228.5, 77.2%, 51.5%)" stroke-width="1.5"></path><path d="M401.92 181.6L381.52 397.65" stroke="hsl(228.5, 77.2%, 51.5%)" stroke-width="1.5"></path><path d="M381.52 397.65L381.52 397.65" stroke="hsl(228.5, 77.2%, 51.5%)" stroke-width="1.5"></path><path d="M381.52 397.65L400.49 530.07" stroke="hsl(228.5, 77.2%, 51.5%)" stroke-width="1.5"></path><path d="M381.52 397.65L519.72 394.31" stroke="hsl(228.5, 77.2%, 51.5%)" stroke-width="1.5"></path><path d="M381.52 397.65L495.28 490.29" stroke="hsl(228.5, 77.2%, 51.5%)" stroke-width="1.5"></path><path d="M400.49 530.07L400.49 530.07" stroke="hsl(228.5, 77.2%, 51.5%)" stroke-width="1.5"></path><path d="M400.49 530.07L495.28 490.29" stroke="hsl(228.5, 77.2%, 51.5%)" stroke-width="1.5"></path><path d="M373.6 761.58L373.6 761.58" stroke="hsl(228.5, 77.2%, 51.5%)" stroke-width="1.5"></path><path d="M373.6 761.58L392.88 846.89" stroke="hsl(228.5, 77.2%, 51.5%)" stroke-width="1.5"></path><path d="M392.88 846.89L392.88 846.89" stroke="hsl(228.5, 77.2%, 51.5%)" stroke-width="1.5"></path><path d="M392.88 846.89L527.26 869.07" stroke="hsl(228.5, 77.2%, 51.5%)" stroke-width="1.5"></path><path d="M392.88 846.89L397.29 999.02" stroke="hsl(228.5, 77.2%, 51.5%)" stroke-width="1.5"></path><path d="M392.88 846.89L495.66 734.05" stroke="hsl(228.5, 77.2%, 51.5%)" stroke-width="1.5"></path><path d="M397.29 999.02L397.29 999.02" stroke="hsl(228.5, 77.2%, 51.5%)" stroke-width="1.5"></path><path d="M537.61 -58.65L537.61 -58.65" stroke="hsl(228.5, 77.2%, 51.5%)" stroke-width="1.5"></path><path d="M537.61 -58.65L493.48 193.7" stroke="hsl(228.5, 77.2%, 51.5%)" stroke-width="1.5"></path><path d="M495.28 490.29L495.28 490.29" stroke="hsl(228.5, 77.2%, 51.5%)" stroke-width="1.5"></path><path d="M495.28 490.29L490.69 657.45" stroke="hsl(228.5, 77.2%, 51.5%)" stroke-width="1.5"></path><path d="M490.69 657.45L490.69 657.45" stroke="hsl(228.5, 77.2%, 51.5%)" stroke-width="1.5"></path><path d="M490.69 657.45L495.66 734.05" stroke="hsl(228.5, 77.2%, 51.5%)" stroke-width="1.5"></path><path d="M495.66 734.05L495.66 734.05" stroke="hsl(228.5, 77.2%, 51.5%)" stroke-width="1.5"></path><path d="M495.66 734.05L373.6 761.58" stroke="hsl(228.5, 77.2%, 51.5%)" stroke-width="1.5"></path><path d="M495.66 734.05L527.26 869.07" stroke="hsl(228.5, 77.2%, 51.5%)" stroke-width="1.5"></path><path d="M527.26 869.07L527.26 869.07" stroke="hsl(228.5, 77.2%, 51.5%)" stroke-width="1.5"></path><path d="M527.26 869.07L513.08 951.89" stroke="hsl(228.5, 77.2%, 51.5%)" stroke-width="1.5"></path><path d="M527.26 869.07L397.29 999.02" stroke="hsl(228.5, 77.2%, 51.5%)" stroke-width="1.5"></path><path d="M527.26 869.07L373.6 761.58" stroke="hsl(228.5, 77.2%, 51.5%)" stroke-width="1.5"></path><path d="M513.08 951.89L513.08 951.89" stroke="hsl(228.5, 77.2%, 51.5%)" stroke-width="1.5"></path><path d="M513.08 951.89L397.29 999.02" stroke="hsl(228.5, 77.2%, 51.5%)" stroke-width="1.5"></path><path d="M513.08 951.89L392.88 846.89" stroke="hsl(228.5, 77.2%, 51.5%)" stroke-width="1.5"></path><path d="M513.08 951.89L495.66 734.05" stroke="hsl(228.5, 77.2%, 51.5%)" stroke-width="1.5"></path><path d="M513.08 951.89L309.19 849.72" stroke="hsl(228.5, 77.2%, 51.5%)" stroke-width="1.5"></path><circle r="25" cx="195.92" cy="829.23" fill="url(#SvgjsRadialGradient1037)"></circle><circle r="25" cx="289.56" cy="731.37" fill="url(#SvgjsRadialGradient1037)"></circle><circle r="25" cx="410.29" cy="-78.85" fill="url(#SvgjsRadialGradient1037)"></circle><circle r="25" cx="414.14" cy="273.67" fill="url(#SvgjsRadialGradient1037)"></circle><circle r="25" cx="407.57" cy="604.97" fill="url(#SvgjsRadialGradient1037)"></circle><circle r="25" cx="498.96" cy="36.49" fill="url(#SvgjsRadialGradient1037)"></circle><circle r="25" cx="493.48" cy="193.7" fill="url(#SvgjsRadialGradient1037)"></circle><circle r="25" cx="528.65" cy="311.37" fill="url(#SvgjsRadialGradient1037)"></circle><circle r="25" cx="519.72" cy="394.31" fill="url(#SvgjsRadialGradient1037)"></circle><circle r="5" cx="-54.55" cy="754.79" fill="#8b9ad9"></circle><circle r="5" cx="-59.91" cy="962.9" fill="#8b9ad9"></circle><circle r="5" cx="74.33" cy="835.24" fill="#8b9ad9"></circle><circle r="5" cx="63.51" cy="973.93" fill="#8b9ad9"></circle><circle r="5" cx="168.02" cy="715.86" fill="#8b9ad9"></circle><circle r="5" cx="257.46" cy="497.45" fill="#8b9ad9"></circle><circle r="5" cx="271.35" cy="622.07" fill="#8b9ad9"></circle><circle r="5" cx="309.19" cy="849.72" fill="#8b9ad9"></circle><circle r="5" cx="284.24" cy="1000.11" fill="#8b9ad9"></circle><circle r="5" cx="390.17" cy="66.18" fill="#8b9ad9"></circle><circle r="5" cx="401.92" cy="181.6" fill="#8b9ad9"></circle><circle r="5" cx="381.52" cy="397.65" fill="#8b9ad9"></circle><circle r="5" cx="400.49" cy="530.07" fill="#8b9ad9"></circle><circle r="5" cx="373.6" cy="761.58" fill="#8b9ad9"></circle><circle r="5" cx="392.88" cy="846.89" fill="#8b9ad9"></circle><circle r="5" cx="397.29" cy="999.02" fill="#8b9ad9"></circle><circle r="5" cx="537.61" cy="-58.65" fill="#8b9ad9"></circle><circle r="5" cx="495.28" cy="490.29" fill="#8b9ad9"></circle><circle r="5" cx="490.69" cy="657.45" fill="#8b9ad9"></circle><circle r="5" cx="495.66" cy="734.05" fill="#8b9ad9"></circle><circle r="5" cx="527.26" cy="869.07" fill="#8b9ad9"></circle><circle r="5" cx="513.08" cy="951.89" fill="#8b9ad9"></circle></g><defs><mask id="SvgjsMask1036"><rect width="412" height="915" fill="#ffffff"></rect></mask><radialGradient id="SvgjsRadialGradient1037"><stop stop-color="#ffffff" offset="0.1"></stop><stop stop-color="rgba(23, 53, 179, 1)" offset="0.2"></stop><stop stop-color="rgba(23, 53, 179, 0)" offset="1"></stop></radialGradient></defs></svg>